<svg xmlns="http://www.w3.org/2000/svg" viewBox="0 0 32 32" fill="none">
  <defs>
    <linearGradient id="g" x1="0%" y1="0%" x2="100%" y2="100%">
      <stop offset="0%" stop-color="#6366f1"/>
      <stop offset="100%" stop-color="#8b5cf6"/>
    </linearGradient>
  </defs>
  <rect width="32" height="32" rx="8" fill="url(#g)"/>
  <path d="M22 20h1.5c.4 0 .7-.3.7-.7V17c0-.6-.5-1.1-1-1.3C21.8 15.4 20 15 20 15s-.9-1-1.5-1.5c-.3-.3-.7-.5-1.2-.5H11c-.4 0-.7.3-1 .6l-1 1.9A2.5 2.5 0 0 0 9 16.8V20c0 .4.3.7.7.7H11" stroke="white" stroke-width="1.5" stroke-linecap="round" stroke-linejoin="round"/>
  <circle cx="13" cy="20" r="1.5" stroke="white" stroke-width="1.5"/>
  <path d="M14.5 20h3" stroke="white" stroke-width="1.5" stroke-linecap="round"/>
  <circle cx="19" cy="20" r="1.5" stroke="white" stroke-width="1.5"/>
</svg>
